<?xml version="1.0" encoding="UTF-8"?>
<svg id="_レイヤー_1" data-name="レイヤー_1" xmlns="http://www.w3.org/2000/svg" viewBox="0 0 595.28 139.09">
  <defs>
    <style>
      .cls-1 {
        fill: none;
        stroke: #49776a;
      }

      .cls-2 {
        fill: #231815;
      }

      .cls-3 {
        fill: #49776a;
      }
    </style>
  </defs>
  <g>
    <path class="cls-2" d="M138,77.51c0,26.62.11,36.19.11,39.05,0,2.09-1.32,3.19-4.07,3.19-2.2,0-2.97-.88-2.97-2.75,0-2.09.22-9.46.55-39.27.11-6.27.11-12.65.11-18.92-3.19,5.39-6.71,10.34-10.45,14.63-.44.55-1.65-.33-1.32-.88,7.7-12.1,14.08-28.49,17.27-42.57.88-3.63,1.54-7.15,1.76-10.56,6.82,1.76,10.34,3.3,10.34,4.51,0,1.1-.88,1.65-4.07,2.31-2.42,9.35-5.94,18.48-10.34,26.84,5.28.99,6.27,1.43,6.27,2.53,0,.77-.55,1.32-3.19,2.53v19.36ZM161.43,60.79c2.64-2.97,3.08-3.41,3.63-3.41s1.1.44,3.96,3.08c1.32,1.21,1.98,1.87,1.98,2.42,0,.88-.99,1.43-2.86,2.31-1.43,12.87-3.96,23.1-8.25,31.79,1.1,1.32,2.2,2.64,3.3,3.63,6.27,6.71,14.63,10.67,32.45,10.67,7.26,0,18.92-.55,27.83-1.87.66-.11.77.99.22,1.32-2.75,1.54-3.19,2.2-3.41,4.51-.22,1.54-.77,1.87-2.86,2.09-5.72.33-13.09.44-20.68.44-17.71,0-25.96-4.07-32.78-10.23-2.09-1.87-4.18-4.18-6.05-6.82-3.96,6.82-9.24,12.76-16.17,18.37-.44.44-1.54-.44-1.1-.99,6.27-7.04,10.89-14.08,14.19-22.33-2.75-5.06-5.28-11.55-7.15-19.58-.33-1.21-.66-1.65-1.21-2.09-.66-.44-1.21-.99-1.21-1.54,0-.44,2.97-1.32,4.18-1.32.66,0,1.1.11,1.1.66,0,.44-.77,1.43-.77,2.2,0,.66.22,1.65.55,2.86,1.54,5.61,3.74,10.56,6.05,14.63,2.75-7.92,4.51-17.05,5.61-28.05h-9.24l-.88,1.76c-.66,1.21-1.43,1.65-2.42,1.65-1.54,0-3.96-.88-3.96-1.98,0-.66.22-1.21.77-2.2,4.62-8.91,9.24-18.92,12.65-29.48h-3.52c-3.85,0-5.17.22-7.81.66l-.99-4.07c3.41.55,5.17.66,8.69.66h3.41c2.75-3.08,3.19-3.3,3.74-3.3s.99.22,3.96,3.19c1.43,1.54,1.65,2.09,1.65,2.64,0,.66-.44,1.21-3.19,2.2-3.41,9.24-6.49,16.83-10.67,25.52h7.26ZM215.22,47.37c2.75-3.96,3.3-4.4,3.85-4.4s1.21.44,4.29,3.63c1.21,1.32,1.54,1.87,1.54,2.53s-.44.99-1.54.99h-10.56c.11,10.23.44,14.52.44,15.84,0,1.98-1.21,2.86-3.63,2.86-1.98,0-2.75-.55-2.75-2.53v-1.1h-13.2c0,3.96.11,8.03.11,11.99h11.44c3.63-4.4,4.18-4.73,4.84-4.73.55,0,1.32.33,5.39,3.63,1.87,1.54,2.2,2.2,2.2,2.86s-.33.99-1.43.99h-22.44c.11,3.85.11,7.7.22,11.55h14.52c3.96-4.73,4.51-5.06,5.06-5.06.66,0,1.43.44,5.61,3.96,1.87,1.54,2.2,2.2,2.2,2.75,0,.77-.33,1.1-1.43,1.1h-25.96c.11,5.72.22,8.36.22,9.79,0,2.31-1.43,3.19-4.18,3.19-2.09,0-2.97-.77-2.97-2.53,0-1.43.11-4.18.22-10.45h-12.32c-2.42,0-4.07.11-7.04.66l-1.1-4.18c3.19.55,5.06.77,7.92.77h12.65c0-3.85.11-7.7.11-11.55h-9.57c-2.31,0-3.85.11-6.82.66l-.99-4.18c3.19.55,4.84.77,7.81.77h9.57c0-3.96.11-8.03.11-11.99h-7.48c-2.64,0-4.18.22-6.93.77l-1.1-4.18c3.08.55,5.06.66,7.81.66h7.7v-12.32h-12.76c-2.86,0-4.51.11-7.48.66l-1.1-4.18c3.41.55,5.28.77,8.58.77h12.76v-12.32h-8.8c-2.09,0-3.63.22-6.49.77l-1.1-4.18c3.41.55,5.28.66,7.37.66h9.02c-.11-6.82-.22-10.12-.55-12.87,8.69,1.1,10.01,1.65,10.01,2.97,0,.66-.44,1.32-3.41,2.53v7.37h12.43c2.75-3.08,3.19-3.41,3.74-3.41s1.1.33,4.07,2.86c1.54,1.32,1.87,1.87,1.87,2.42,0,.66-.33,1.1-2.97,2.86v10.34h2.42ZM206.86,35.05h-13.2v12.32h13.2v-12.32ZM193.66,50.12v12.32h13.2v-12.32h-13.2Z"/>
    <path class="cls-2" d="M302.45,77.18c2.86,6.49,6.6,12.87,11.77,17.82,3.85-3.52,7.15-6.93,9.9-10.45,1.21-1.65,2.2-3.08,2.86-4.51,5.06,3.41,7.48,5.5,7.48,6.49,0,1.21-.77,1.65-4.62.99-4.18,3.19-8.58,6.38-13.86,9.13,1.1.99,2.31,1.98,3.52,2.86,6.6,4.95,14.96,8.25,23.1,10.01.66.11.44,1.21-.22,1.32-2.31.33-3.52,1.1-4.4,3.96-.55,1.65-.88,1.98-1.76,1.98-.55,0-1.54-.22-3.3-1.1-7.15-3.41-13.31-8.14-17.93-13.09-4.73-5.17-9.57-12.21-14.08-23.87l.22,11.77c.44,13.2.55,17.49.55,22,0,3.08-1.54,4.95-3.52,6.27-1.43,1.1-4.29,1.76-6.05,1.76-1.21,0-1.43-.11-1.65-1.76-.44-2.75-1.87-3.96-10.78-6.05-.66-.11-.55-1.54.11-1.43,6.82.66,10.23.77,13.2.77,1.32,0,1.87-.44,1.87-1.76v-14.3c-7.7,4.73-17.05,8.91-27.39,12.76-.44,3.19-.88,4.07-1.87,4.07-.88,0-1.76-1.1-5.17-10.01,1.87-.11,4.18-.44,7.26-.99,8.58-1.54,19.14-4.73,27.17-7.92v-16.72h-19.47c-3.19,0-4.95.22-7.7.77l-1.1-4.18c3.52.55,5.5.66,8.69.66h19.58v-11.11h-33.11c-.44,8.91-1.32,16.06-2.75,22.99-2.31,11.55-6.38,20.9-15.18,31.9-.44.55-1.76-.22-1.43-.77,6.38-11.77,9.02-20.68,10.67-31.46,1.54-10.67,2.2-23.1,2.2-39.6,0-9.68-.11-12.65-.66-18.92,3.3,1.43,5.61,2.53,8.8,4.73h29.81v-5.28c0-1.87-.11-4.07-.55-7.04,9.79,1.1,11.22,1.87,11.22,3.19,0,.88-.66,1.65-4.07,2.97v6.16h28.93c4.29-5.06,4.73-5.39,5.39-5.39.55,0,1.32.33,6.05,4.07,2.31,1.87,2.53,2.42,2.53,2.97,0,.77-.44,1.1-1.43,1.1h-79.09v8.36c0,6.49-.11,12.1-.33,17.27h33v-10.45h-17.93c-2.75,0-4.62.11-7.59.77l-1.1-4.29c3.63.55,5.72.77,8.58.77h18.04c0-5.72-.22-7.7-.55-10.56,9.13,1.1,10.23,1.65,10.23,2.86,0,.66-.55,1.43-3.41,2.53v5.17h20.13c2.97-3.3,3.41-3.52,4.07-3.52.55,0,1.1.22,4.18,2.75,1.65,1.32,1.76,1.98,1.76,2.53,0,.77-.22,1.1-2.75,2.97v8.47h3.85c3.63-4.51,4.62-5.17,5.28-5.17s1.65.66,5.39,4.07c1.65,1.43,1.87,2.2,1.87,2.86s-.33.99-1.43.99h-14.96c.11,8.91.33,12.32.33,13.42,0,2.2-1.32,2.97-3.96,2.97-1.98,0-2.75-.55-2.75-2.42v-.11h-19.69ZM271.65,80.92c8.36,2.31,12.76,6.27,12.76,10.23,0,2.2-1.32,3.74-3.3,3.74-1.54,0-2.42-.66-3.41-3.41-1.21-3.3-3.08-6.49-6.6-9.68-.44-.33,0-.99.55-.88ZM301.13,60.57h21.01v-10.45h-21.01v10.45ZM301.13,63.32v11.11h21.01v-11.11h-21.01Z"/>
    <path class="cls-2" d="M437.01,45.73c0-1.26-.25-1.76-1.64-1.76-13.1.38-29.23,1.89-43.72,3.78-3.02.38-4.79.76-5.67,1.13-.5.25-1.51.88-2.52.88-1.13,0-3.4-.76-6.68-3.91-2.02-2.02-4.41-5.17-4.41-7.18,0-1.39.63-2.02,1.13-2.02s1.39.5,2.14,1.26c2.14,1.89,5.04,3.78,7.31,3.78,2.14,0,5.17-.25,8.06-.5,12.35-.88,29.49-2.02,41.33-2.65,1.89-.13,2.9-.63,3.91-1.26,1.39-.88,2.14-1.39,3.28-1.39.88,0,2.52.88,5.67,3.28,2.65,2.02,3.91,3.53,3.91,4.91,0,1.01-.88,1.76-1.89,2.52-1.39,1.13-2.02,1.64-2.27,3.4-1.76,14.11-3.53,27.85-5.42,44.35,4.16,1.01,5.42,2.52,5.42,4.66,0,1.39-.76,2.52-2.65,2.52-1.39,0-3.28-.25-5.67-.38-2.14-.13-4.41-.13-6.93-.13-12.73.38-25.83,1.64-39.82,3.53-2.39.38-3.53.76-4.41,1.26-.63.38-1.13.63-2.39.63-1.64,0-3.91-1.39-6.3-3.65-2.52-2.27-5.04-4.91-5.04-7.31,0-.76.5-1.51,1.26-1.51.88,0,1.51.38,2.14.88,3.4,2.77,6.3,3.65,8.44,3.65,1.89,0,3.78-.25,6.55-.5,14.36-1.39,27.85-2.52,42.46-3.28,1.13-10.46,1.89-17.26,2.39-23.94-12.73.63-25.45,1.76-38.05,3.28-3.4.38-6.05.88-7.06,1.51-1.01.63-1.26,1.01-2.52,1.01-1.76,0-3.65-1.01-5.92-2.77-3.53-2.65-5.54-5.54-5.54-7.56,0-.88,1.01-1.39,1.39-1.39.5,0,1.01.25,1.64.76,2.77,2.39,5.17,2.9,7.18,2.9s5.42-.13,7.43-.38c14.74-1.39,28.1-2.27,42.09-3.02.63-7.94,1.13-14.11,1.39-19.41Z"/>
    <path class="cls-2" d="M540.58,50.25c2.4-.24,2.88-.6,3.36-1.08.72-.6,1.8-1.8,3.12-1.8,1.44,0,3.36,1.56,6.12,4.44,2.28,2.4,3.12,4.08,3.12,5.16,0,1.56-.6,2.04-1.92,3-.6.36-1.2.84-1.56,3-.84,4.56-1.8,10.32-3.12,15.72-2.28,9.48-4.92,18.24-7.44,24.12-3.12,7.08-6.84,10.44-11.04,10.44-1.56,0-2.64-.84-3.24-3.48-.36-1.68-1.2-2.28-3.24-3.6-2.76-1.68-4.8-3-7.68-4.32-1.08-.48-1.2-1.08-1.2-1.68,0-.72.6-1.32,1.2-1.32.96,0,2.28.48,3.24.72,4.68,1.44,9.72,2.76,11.64,2.76,1.56,0,2.76-.24,3.72-2.4,2.52-5.64,5.4-13.2,7.68-24.36,1.44-6.12,3.12-14.76,3.12-19.2,0-1.32-.36-1.68-1.32-1.68s-2.28,0-4.68.24c-6.6.6-14.28,1.44-22.08,2.64-3.12,12.48-7.68,22.68-14.4,32.76-5.64,8.76-15.48,18-24.96,23.76-.84.48-2.04,1.08-3,1.08-.84,0-1.44-.84-1.44-1.68,0-.72.72-1.32,1.68-2.04,8.16-6.12,16.44-14.88,22.2-23.52s10.08-19.08,12.84-29.28c-4.68.72-8.88,1.32-13.08,2.04-4.32.72-6.12.96-7.68,1.68-1.2.6-2.04.84-2.76.84-2.16,0-4.92-2.04-6.72-4.56-2.16-3-3-4.68-3-6.72,0-1.44.72-1.8,1.2-1.8s1.08.6,1.92,1.44c2.16,2.4,4.68,4.08,7.44,4.08,2.28,0,4.92-.24,8.28-.6,5.16-.48,9.6-1.08,15.84-1.68,1.44-7.56,2.52-12.84,2.52-17.04,0-3.96-2.64-5.04-6.12-5.88-.96-.24-1.2-.48-1.2-1.08,0-1.32,2.64-2.4,4.44-2.4,2.28,0,5.52,1.32,7.8,2.76,3.24,2.04,5.16,4.2,5.16,5.88,0,1.08-.84,1.8-1.8,2.64-.72.72-.96,1.08-1.32,2.28-.84,3.84-1.8,7.68-2.52,12.12,7.2-.84,13.08-1.56,20.88-2.4ZM551.38,29.49c3.72,1.32,6.72,3,8.88,4.8,2.52,2.04,5.16,5.16,5.16,7.8,0,2.16-1.2,3.48-3,3.48-1.68,0-2.4-.96-3.96-3.96-1.44-2.76-5.28-7.08-8.88-9.72-.48-.36-.72-.84-.72-1.2,0-.72.6-1.32,1.32-1.32.36,0,.84,0,1.2.12ZM562.18,22.29c2.76.72,6.24,2.4,8.52,3.96,2.76,1.92,5.4,4.92,5.4,7.68,0,2.04-1.44,3.24-2.76,3.24-1.44,0-2.28-.48-3.96-3.24-1.92-3.36-5.88-7.2-9.84-9.6-.36-.24-.48-.84-.48-1.2,0-.6.48-1.2,1.2-1.2.36,0,1.08.12,1.92.36Z"/>
  </g>
  <g>
    <circle class="cls-1" cx="54.99" cy="72.05" r="48.52"/>
    <path class="cls-3" d="M96.46,100.94c-1.24-1.45-4.14-7.26-4.14-7.26,0,0,.48-.62,0-2.7-.62-2.69-3.32-2.49-3.94-3.11-.62-.62-6.01-10.47-6.43-11.61-.41-1.14-4.98-14.1-4.98-14.1-1.53-6.74-4.36-9.54-8.09-10.37-3.7-.82-5.7-.62-7.36-2.07-1.04-.91-1-1.58-1-4.31,0,0,1.12-1.06,1.93-2.53.93-1.68,1.39-4.1,1.39-4.1.93-.37.94-.84,1.35-2.32.56-2.05.52-3.46-.97-3.46.35-6.7-3.01-10.11-8.4-10.11s-8.75,3.42-8.4,10.11c-1.49,0-1.53,1.41-.97,3.46.4,1.48.41,1.95,1.35,2.32,0,0,.46,2.42,1.39,4.1.82,1.47,1.93,2.53,1.93,2.53,0,2.73.03,3.4-1,4.31-1.66,1.45-3.66,1.25-7.36,2.07-3.73.83-6.55,3.63-8.08,10.37,0,0-4.56,12.95-4.98,14.1s-5.81,10.99-6.43,11.61c-.62.62-3.32.41-3.94,3.11-.48,2.08,0,2.7,0,2.7,0,0-2.9,5.8-4.15,7.26-1.24,1.45,1.04,2.49,2.49.62.17.25.74.43,1.4.52-5.06,5.6-2.17,12.89,5.65,12.54,6.42-.29,31.09-4.77,31.09-4.77,0,0,24.68,4.48,31.1,4.77,7.83.36,10.71-6.94,5.65-12.54.65-.09,1.23-.27,1.4-.52,1.45,1.87,3.73.83,2.49-.62ZM42.77,91.67s-10.62,3.16-17.24,6.13c1.36-2.54,2.93-5.99,2.93-5.99l6.64-9.53,5.29-11.51s1.66,6.22,2.17,7.15c.52.93.21,13.74.21,13.74ZM68.89,91.67s-.31-12.81.21-13.74c.52-.93,2.18-7.15,2.18-7.15l5.29,11.51,6.63,9.53s1.57,3.45,2.93,5.99c-6.62-2.98-17.24-6.13-17.24-6.13Z"/>
    <ellipse class="cls-3" cx="55.83" cy="22.89" rx="5.1" ry="4.37"/>
  </g>
</svg>